<?xml version="1.0" standalone="no"?>
<!DOCTYPE svg PUBLIC "-//W3C//DTD SVG 20010904//EN"
 "http://www.w3.org/TR/2001/REC-SVG-20010904/DTD/svg10.dtd">
<svg version="1.0" xmlns="http://www.w3.org/2000/svg"
 width="700.000000pt" height="700.000000pt" viewBox="0 0 700.000000 700.000000"
 preserveAspectRatio="xMidYMid meet">
<metadata>
Created by potrace 1.11, written by Peter Selinger 2001-2013
</metadata>
<g transform="translate(0.000000,700.000000) scale(0.100000,-0.100000)"
fill="#000000" stroke="none">
<path d="M820 6980 c-386 -82 -681 -364 -793 -758 l-22 -77 -3 -2600 c-2
-1789 1 -2622 8 -2670 34 -223 144 -431 313 -591 127 -121 273 -203 456 -257
l76 -22 2613 -3 c2530 -2 2616 -2 2705 17 208 42 367 129 523 285 155 155 242
315 285 521 18 86 19 177 19 2105 l0 2015 -1028 1028 -1027 1027 -2020 -1
c-1913 0 -2024 -1 -2105 -19z m815 -2226 c138 -256 255 -472 260 -480 7 -10
72 108 255 466 l245 480 193 0 192 0 0 -820 0 -820 -195 0 -195 0 -2 483 -3
482 -174 -353 -175 -352 -155 2 -156 3 -165 327 c-91 180 -168 328 -172 328
-5 0 -8 -207 -8 -460 l0 -460 -195 0 -195 0 0 820 0 820 198 0 197 -1 250
-465z m2380 437 c264 -63 437 -186 535 -381 34 -68 70 -179 70 -217 l0 -23
415 0 c228 0 415 3 415 8 0 4 -86 93 -191 197 -105 105 -197 203 -206 219 -22
42 -13 116 20 160 44 56 145 82 192 48 6 -4 172 -199 368 -435 293 -350 356
-430 348 -445 -5 -9 -169 -175 -363 -369 -296 -295 -359 -353 -393 -362 -78
-21 -160 23 -190 104 -33 86 -28 96 206 330 115 116 209 214 209 218 0 4 -187
6 -416 5 l-416 -3 -22 -75 c-64 -217 -202 -379 -411 -480 -187 -91 -318 -110
-766 -110 l-299 0 0 821 0 821 403 -5 c366 -4 410 -6 492 -26z m-2195 -2056
c113 -25 230 -84 299 -150 184 -176 201 -508 36 -720 -129 -166 -318 -247
-610 -261 l-145 -7 0 -239 0 -238 -205 0 -205 0 0 821 0 821 378 -5 c303 -4
392 -8 452 -22z m1502 2 c198 -39 339 -107 454 -222 88 -87 148 -191 180 -310
22 -83 30 -296 14 -393 -42 -262 -209 -486 -442 -591 -189 -86 -297 -101 -725
-101 l-333 0 0 821 0 821 388 -5 c283 -4 408 -9 464 -20z m2088 -157 l0 -180
-375 0 -375 0 0 -160 0 -160 335 0 335 0 0 -175 0 -175 -335 0 -335 0 0 -305
0 -305 -205 0 -205 0 0 820 0 820 580 0 580 0 0 -180z"/>
<path d="M3520 4400 l0 -470 148 0 c229 0 326 26 420 114 86 81 124 187 125
346 0 147 -34 244 -117 336 -93 104 -212 144 -433 144 l-143 0 0 -470z"/>
<path d="M1400 2581 l0 -221 143 0 c117 0 149 4 182 19 108 50 153 172 104
281 -26 59 -44 77 -104 108 -45 24 -63 27 -187 30 l-138 4 0 -221z"/>
<path d="M2870 2340 l0 -470 163 0 c175 0 240 11 325 54 93 47 166 147 192
261 14 65 14 221 -1 281 -31 127 -110 229 -219 284 -87 44 -173 60 -327 60
l-133 0 0 -470z"/>
</g>
</svg>
