<?xml version="1.0" encoding="UTF-8" standalone="no"?>
<svg
   xmlns:dc="http://purl.org/dc/elements/1.1/"
   xmlns:cc="http://creativecommons.org/ns#"
   xmlns:rdf="http://www.w3.org/1999/02/22-rdf-syntax-ns#"
   xmlns:svg="http://www.w3.org/2000/svg"
   xmlns="http://www.w3.org/2000/svg"
   xmlns:xlink="http://www.w3.org/1999/xlink"
   xmlns:sodipodi="http://sodipodi.sourceforge.net/DTD/sodipodi-0.dtd"
   xmlns:inkscape="http://www.inkscape.org/namespaces/inkscape"
   width="256mm"
   height="256mm"
   viewBox="0 0 256 256"
   version="1.1"
   id="svg8"
   inkscape:version="1.0.1 (3bc2e813f5, 2020-09-07)"
   sodipodi:docname="logo.svg">
  <defs
     id="defs2">
    <linearGradient
       inkscape:collect="always"
       id="linearGradient1783">
      <stop
         style="stop-color:#003f45;stop-opacity:1"
         offset="0"
         id="stop1779" />
      <stop
         style="stop-color:#00e0f5;stop-opacity:1"
         offset="1"
         id="stop1781" />
    </linearGradient>
    <linearGradient
       id="linear-gradient"
       x1="7.4710212"
       y1="5.6289573"
       x2="13.194695"
       y2="38.70015"
       gradientTransform="matrix(1,0,0,-1,0,64)"
       gradientUnits="userSpaceOnUse">
      <stop
         offset="0"
         stop-color="#ff980e"
         id="stop2" />
      <stop
         offset="1"
         stop-color="#f5156c"
         id="stop14" />
    </linearGradient>
    <linearGradient
       id="linear-gradient-2"
       x1="46.369999"
       y1="59.709999"
       x2="15.42"
       y2="6.1100001"
       gradientTransform="matrix(1,0,0,-1,-81.360548,106.42749)"
       gradientUnits="userSpaceOnUse">
      <stop
         offset="0"
         stop-color="#fff44f"
         stop-opacity="0.8"
         id="stop17" />
      <stop
         offset="0.09"
         stop-color="#fff44f"
         stop-opacity="0.7"
         id="stop19" />
      <stop
         offset="0.75"
         stop-color="#fff44f"
         stop-opacity="0"
         id="stop21" />
    </linearGradient>
    <linearGradient
       id="linear-gradient-3"
       x1="40.189999"
       y1="26.08"
       x2="54.32"
       y2="50.549999"
       gradientTransform="matrix(1,0,0,-1,-50.33374,106.12888)"
       gradientUnits="userSpaceOnUse">
      <stop
         offset="0"
         stop-color="#3a8ee6"
         id="stop24" />
      <stop
         offset="0.24"
         stop-color="#5c79f0"
         id="stop26" />
      <stop
         offset="0.63"
         stop-color="#9059ff"
         id="stop28" />
      <stop
         offset="1"
         stop-color="#c139e6"
         id="stop30" />
    </linearGradient>
    <linearGradient
       id="linear-gradient-4"
       x1="54.32"
       y1="50.580002"
       x2="48.389999"
       y2="40.310001"
       gradientTransform="matrix(1,0,0,-1,-42.982475,124.15936)"
       gradientUnits="userSpaceOnUse">
      <stop
         offset="0"
         stop-color="#6e008b"
         stop-opacity="0.5"
         id="stop33" />
      <stop
         offset="0.5"
         stop-color="#c846cb"
         stop-opacity="0"
         id="stop35" />
    </linearGradient>
    <linearGradient
       id="linear-gradient-5"
       x1="56.959999"
       y1="22.5"
       x2="41.98"
       y2="37.459999"
       gradientTransform="matrix(1,0,0,-1,-57.076281,84.469569)"
       gradientUnits="userSpaceOnUse">
      <stop
         offset="0.14"
         stop-color="#6a2bea"
         stop-opacity="0"
         id="stop38" />
      <stop
         offset="0.34"
         stop-color="#642de4"
         stop-opacity="0.03"
         id="stop40" />
      <stop
         offset="0.55"
         stop-color="#5131d3"
         stop-opacity="0.12"
         id="stop42" />
      <stop
         offset="0.76"
         stop-color="#3139b7"
         stop-opacity="0.27"
         id="stop44" />
      <stop
         offset="0.98"
         stop-color="#054490"
         stop-opacity="0.48"
         id="stop46" />
      <stop
         offset="1"
         stop-color="#00458b"
         stop-opacity="0.5"
         id="stop48" />
    </linearGradient>
    <linearGradient
       inkscape:collect="always"
       xlink:href="#linearGradient1783"
       id="linearGradient1785"
       x1="193.90541"
       y1="61.640549"
       x2="-41.046661"
       y2="291.56924"
       gradientUnits="userSpaceOnUse" />
  </defs>
  <sodipodi:namedview
     id="base"
     pagecolor="#ffffff"
     bordercolor="#666666"
     borderopacity="1.0"
     inkscape:pageopacity="0.0"
     inkscape:pageshadow="2"
     inkscape:zoom="0.35"
     inkscape:cx="783.42511"
     inkscape:cy="488.68167"
     inkscape:document-units="mm"
     inkscape:current-layer="layer1"
     inkscape:document-rotation="0"
     showgrid="false"
     inkscape:window-width="1920"
     inkscape:window-height="1024"
     inkscape:window-x="1920"
     inkscape:window-y="28"
     inkscape:window-maximized="1" />
  <metadata
     id="metadata5">
    <rdf:RDF>
      <cc:Work
         rdf:about="">
        <dc:format>image/svg+xml</dc:format>
        <dc:type
           rdf:resource="http://purl.org/dc/dcmitype/StillImage" />
        <dc:title></dc:title>
      </cc:Work>
    </rdf:RDF>
  </metadata>
  <g
     inkscape:label="Calque 1"
     inkscape:groupmode="layer"
     id="layer1">
    <path
       id="rect1083"
       style="fill:url(#linearGradient1785);fill-opacity:1;stroke-width:0"
       d="M 255.99925,75.435023 V 218.14814 c 0,20.96963 -16.88168,37.8513 -37.8513,37.8513 H 37.851307 C 16.881683,255.99944 1.2752e-6,239.11777 1.2752e-6,218.14814 V 37.851866 C 1.2752e-6,16.882243 16.881683,5.6055704e-4 37.851307,5.6055704e-4 v 0 H 180.56425"
       sodipodi:nodetypes="csssssscc" />
    <g
       id="g1777"
       style="fill:#ffffff;fill-opacity:1"
       transform="translate(0,4.7625002)">
      <g
         id="g1153"
         transform="matrix(1.9576235,0,0,1.9576235,-72.499166,-148.29932)"
         style="fill:#ffffff;fill-opacity:1">
        <path
           d="m 121.76358,124.79528 h 17.10778 l -7.14267,7.14267 c -2.88087,2.88087 1.44044,7.20219 4.32131,4.32131 l 12.37469,-12.35682 c 0.0732,-0.0701 0.1416,-0.14461 0.20535,-0.22321 l 0.15177,-0.20535 v -0.0446 l 0.125,-0.21427 0.11611,-0.24107 0.0892,-0.25 0.0625,-0.25892 0.14285,-0.2232 v -1.1339 l -0.0625,-0.25892 -0.0892,-0.25892 -0.1161,-0.24107 -0.12499,-0.21428 -0.1518,-0.21428 -0.3482,-0.35713 -12.33897,-12.32111 c -2.8432,-2.28493 -6.58256,1.42353 -4.32131,4.28561 l 7.14268,7.14266 h -17.16137 z"
           fill="url(#linear-gradient)"
           id="path53-9"
           sodipodi:nodetypes="ccscccccccccccccccccccccc"
           style="fill:#ffffff;fill-opacity:1;stroke-width:0.892832" />
        <g
           aria-label="MD "
           id="text890"
           style="font-style:normal;font-variant:normal;font-weight:800;font-stretch:normal;font-size:40px;line-height:1.25;font-family:Cantarell;-inkscape-font-specification:'Cantarell, Ultra-Bold';font-variant-ligatures:normal;font-variant-caps:normal;font-variant-numeric:normal;font-variant-east-asian:normal;fill:#ffffff;fill-opacity:1;stroke:none"
           transform="matrix(1.105111,0,0,1.105111,47.318395,96.679258)">
          <path
             d="m 7.4232262,36.67511 h 6.7199998 v -15.6 l 5.76,11.32 h 5.24 l 5.88,-12.04 v 16.32 h 6.72 V 8.9151099 h -6.6 l -8.28,16.2000001 -8.76,-16.2000001 H 7.4232262 Z"
             style="font-style:normal;font-variant:normal;font-weight:800;font-stretch:normal;font-size:40px;font-family:Cantarell;-inkscape-font-specification:'Cantarell, Ultra-Bold';font-variant-ligatures:normal;font-variant-caps:normal;font-variant-numeric:normal;font-variant-east-asian:normal;fill:#ffffff;fill-opacity:1"
             id="path1229" />
          <path
             d="m 43.423211,36.67511 h 9.88 c 9.52,0 15.8,-5.72 15.8,-14.44 0,-8.36 -5.68,-13.3200001 -15.28,-13.3200001 h -10.4 z m 6.8,-5.96 v -15.84 h 3.2 c 5.32,0 8.48,3.04 8.48,8.16 0,4.96 -2.76,7.68 -7.8,7.68 z"
             style="font-style:normal;font-variant:normal;font-weight:800;font-stretch:normal;font-size:40px;font-family:Cantarell;-inkscape-font-specification:'Cantarell, Ultra-Bold';font-variant-ligatures:normal;font-variant-caps:normal;font-variant-numeric:normal;font-variant-east-asian:normal;fill:#ffffff;fill-opacity:1"
             id="path1231" />
        </g>
      </g>
      <g
         aria-label="PDF"
         id="text1163"
         style="font-style:normal;font-variant:normal;font-weight:800;font-stretch:normal;font-size:40px;line-height:1.25;font-family:Cantarell;-inkscape-font-specification:'Cantarell, Ultra-Bold';font-variant-ligatures:normal;font-variant-caps:normal;font-variant-numeric:normal;font-variant-east-asian:normal;fill:#ffffff;fill-opacity:1;stroke:none"
         transform="matrix(2.1633913,0,0,2.1633913,-186.15493,116.40824)">
        <path
           d="m 102.77693,36.67511 h 6.92 v -8.16 h 2.28 c 7.52,0 12.48,-4.12 12.48,-10.36 0,-5.8 -4.24,-9.2400001 -11.32,-9.2400001 h -10.36 z m 6.92,-14.24 v -7.44 h 2.88 c 2.8,0 4.68,1.52 4.68,3.84 0,2.24 -1.56,3.6 -4.04,3.6 z"
           id="path1234"
           style="fill:#ffffff;fill-opacity:1" />
        <path
           d="m 127.77685,36.67511 h 9.88 c 9.52,0 15.8,-5.72 15.8,-14.44 0,-8.36 -5.68,-13.3200001 -15.28,-13.3200001 h -10.4 z m 6.8,-5.96 v -15.84 h 3.2 c 5.32,0 8.48,3.04 8.48,8.16 0,4.96 -2.76,7.68 -7.8,7.68 z"
           id="path1236"
           style="fill:#ffffff;fill-opacity:1" />
        <path
           d="m 157.77678,36.67511 h 7.04 v -10.28 h 11.32 v -6.08 h -11.32 v -5.32 h 12.76 V 8.9151099 h -19.8 z"
           id="path1238"
           style="fill:#ffffff;fill-opacity:1" />
      </g>
    </g>
    <path
       style="fill:#002225;fill-opacity:0.2818625;stroke:none;stroke-width:0.264583px;stroke-linecap:butt;stroke-linejoin:miter;stroke-opacity:1"
       d="m 256,75.43514 -7.5e-4,65.95494 -65.33324,-78.12333 z"
       id="path1127"
       sodipodi:nodetypes="cccc" />
    <path
       id="path1109"
       style="fill:#00b1c1;fill-opacity:1;stroke-width:0"
       d="m 256,75.43514 h -37.58374 c -20.96966,0 -37.85137,-16.881708 -37.85137,-37.851365 V 5.6055704e-4" />
  </g>
</svg>
