<?xml version="1.0" encoding="UTF-8" standalone="no"?>
<svg
   xmlns:dc="http://purl.org/dc/elements/1.1/"
   xmlns:cc="http://creativecommons.org/ns#"
   xmlns:rdf="http://www.w3.org/1999/02/22-rdf-syntax-ns#"
   xmlns:svg="http://www.w3.org/2000/svg"
   xmlns="http://www.w3.org/2000/svg"
   xmlns:sodipodi="http://sodipodi.sourceforge.net/DTD/sodipodi-0.dtd"
   xmlns:inkscape="http://www.inkscape.org/namespaces/inkscape"
   version="1.1"
   id="logo"
   sodipodi:docname="wordmark.svg"
   width="185"
   height="64"
   inkscape:version="1.0.1 (3bc2e813f5, 2020-09-07)">
  <metadata
     id="metadata13">
    <rdf:RDF>
      <cc:Work
         rdf:about="">
        <dc:format>image/svg+xml</dc:format>
        <dc:type
           rdf:resource="http://purl.org/dc/dcmitype/StillImage" />
        <dc:title></dc:title>
      </cc:Work>
    </rdf:RDF>
  </metadata>
  <defs
     id="defs11">
    <linearGradient
       id="linear-gradient"
       x1="7.4710212"
       y1="5.6289573"
       x2="13.194695"
       y2="38.70015"
       gradientTransform="matrix(1,0,0,-1,0,64)"
       gradientUnits="userSpaceOnUse">
      <stop
         offset="0"
         stop-color="#ff980e"
         id="stop2" />
      <stop
         offset="1"
         stop-color="#f5156c"
         id="stop14" />
    </linearGradient>
    <linearGradient
       id="linear-gradient-2"
       x1="46.369999"
       y1="59.709999"
       x2="15.42"
       y2="6.1100001"
       gradientTransform="matrix(1,0,0,-1,-81.360548,106.42749)"
       gradientUnits="userSpaceOnUse">
      <stop
         offset="0"
         stop-color="#fff44f"
         stop-opacity="0.8"
         id="stop17" />
      <stop
         offset="0.09"
         stop-color="#fff44f"
         stop-opacity="0.7"
         id="stop19" />
      <stop
         offset="0.75"
         stop-color="#fff44f"
         stop-opacity="0"
         id="stop21" />
    </linearGradient>
    <linearGradient
       id="linear-gradient-3"
       x1="40.189999"
       y1="26.08"
       x2="54.32"
       y2="50.549999"
       gradientTransform="matrix(1,0,0,-1,-50.33374,106.12888)"
       gradientUnits="userSpaceOnUse">
      <stop
         offset="0"
         stop-color="#3a8ee6"
         id="stop24" />
      <stop
         offset="0.24"
         stop-color="#5c79f0"
         id="stop26" />
      <stop
         offset="0.63"
         stop-color="#9059ff"
         id="stop28" />
      <stop
         offset="1"
         stop-color="#c139e6"
         id="stop30" />
    </linearGradient>
    <linearGradient
       id="linear-gradient-4"
       x1="54.32"
       y1="50.580002"
       x2="48.389999"
       y2="40.310001"
       gradientTransform="matrix(1,0,0,-1,-42.982475,124.15936)"
       gradientUnits="userSpaceOnUse">
      <stop
         offset="0"
         stop-color="#6e008b"
         stop-opacity="0.5"
         id="stop33" />
      <stop
         offset="0.5"
         stop-color="#c846cb"
         stop-opacity="0"
         id="stop35" />
    </linearGradient>
    <linearGradient
       id="linear-gradient-5"
       x1="56.959999"
       y1="22.5"
       x2="41.98"
       y2="37.459999"
       gradientTransform="matrix(1,0,0,-1,-57.076281,84.469569)"
       gradientUnits="userSpaceOnUse">
      <stop
         offset="0.14"
         stop-color="#6a2bea"
         stop-opacity="0"
         id="stop38" />
      <stop
         offset="0.34"
         stop-color="#642de4"
         stop-opacity="0.03"
         id="stop40" />
      <stop
         offset="0.55"
         stop-color="#5131d3"
         stop-opacity="0.12"
         id="stop42" />
      <stop
         offset="0.76"
         stop-color="#3139b7"
         stop-opacity="0.27"
         id="stop44" />
      <stop
         offset="0.98"
         stop-color="#054490"
         stop-opacity="0.48"
         id="stop46" />
      <stop
         offset="1"
         stop-color="#00458b"
         stop-opacity="0.5"
         id="stop48" />
    </linearGradient>
  </defs>
  <sodipodi:namedview
     pagecolor="#ffffff"
     bordercolor="#666666"
     borderopacity="1"
     objecttolerance="10"
     gridtolerance="10"
     guidetolerance="10"
     inkscape:pageopacity="0"
     inkscape:pageshadow="2"
     inkscape:window-width="1920"
     inkscape:window-height="1052"
     id="namedview9"
     showgrid="false"
     inkscape:zoom="3.5614611"
     inkscape:cx="119.40649"
     inkscape:cy="59.630489"
     inkscape:window-x="0"
     inkscape:window-y="28"
     inkscape:window-maximized="1"
     inkscape:current-layer="logo"
     inkscape:document-rotation="0" />
  <path
     d="m 67.364442,25.441804 h 15.4806 l -6.46331,6.463308 c -2.60686,2.606865 1.30344,6.517163 3.9103,3.9103 l 11.19769,-11.18152 c 0.0662,-0.0634 0.12813,-0.130859 0.18582,-0.201979 l 0.13733,-0.185822 v -0.0404 l 0.11311,-0.193897 0.10507,-0.218138 0.0807,-0.226218 0.0566,-0.234294 0.12926,-0.201973 v -1.026054 l -0.0566,-0.234294 -0.0807,-0.234293 -0.10506,-0.218137 -0.1131,-0.193903 -0.13736,-0.193897 -0.31508,-0.323163 -11.16537,-11.1491993 c -2.57277,-2.067609 -5.95647,1.2881313 -3.91029,3.8779853 l 6.46331,6.463301 h -15.52909 z"
     fill="url(#linear-gradient)"
     id="path53-9"
     sodipodi:nodetypes="ccscccccccccccccccccccccc"
     style="fill:#00e0f5;fill-opacity:1;stroke-width:0.807912" />
  <g
     aria-label="MD "
     id="text890"
     style="font-style:normal;font-variant:normal;font-weight:800;font-stretch:normal;font-size:40px;line-height:1.25;font-family:Cantarell;-inkscape-font-specification:'Cantarell, Ultra-Bold';font-variant-ligatures:normal;font-variant-caps:normal;font-variant-numeric:normal;font-variant-east-asian:normal;fill:#ffffff;fill-opacity:1;stroke:none">
    <path
       d="m 7.4232262,36.67511 h 6.7199998 v -15.6 l 5.76,11.32 h 5.24 l 5.88,-12.04 v 16.32 h 6.72 V 8.9151099 h -6.6 l -8.28,16.2000001 -8.76,-16.2000001 H 7.4232262 Z"
       style="font-style:normal;font-variant:normal;font-weight:800;font-stretch:normal;font-size:40px;font-family:Cantarell;-inkscape-font-specification:'Cantarell, Ultra-Bold';font-variant-ligatures:normal;font-variant-caps:normal;font-variant-numeric:normal;font-variant-east-asian:normal;fill:#ffffff;fill-opacity:1"
       id="path1229" />
    <path
       d="m 43.423211,36.67511 h 9.88 c 9.52,0 15.8,-5.72 15.8,-14.44 0,-8.36 -5.68,-13.3200001 -15.28,-13.3200001 h -10.4 z m 6.8,-5.96 v -15.84 h 3.2 c 5.32,0 8.48,3.04 8.48,8.16 0,4.96 -2.76,7.68 -7.8,7.68 z"
       style="font-style:normal;font-variant:normal;font-weight:800;font-stretch:normal;font-size:40px;font-family:Cantarell;-inkscape-font-specification:'Cantarell, Ultra-Bold';font-variant-ligatures:normal;font-variant-caps:normal;font-variant-numeric:normal;font-variant-east-asian:normal;fill:#ffffff;fill-opacity:1"
       id="path1231" />
  </g>
  <g
     aria-label="PDF"
     id="text1163"
     style="font-style:normal;font-variant:normal;font-weight:800;font-stretch:normal;font-size:40px;line-height:1.25;font-family:Cantarell;-inkscape-font-specification:'Cantarell, Ultra-Bold';font-variant-ligatures:normal;font-variant-caps:normal;font-variant-numeric:normal;font-variant-east-asian:normal;fill:#ffffff;fill-opacity:1;stroke:none">
    <path
       d="m 102.77693,36.67511 h 6.92 v -8.16 h 2.28 c 7.52,0 12.48,-4.12 12.48,-10.36 0,-5.8 -4.24,-9.2400001 -11.32,-9.2400001 h -10.36 z m 6.92,-14.24 v -7.44 h 2.88 c 2.8,0 4.68,1.52 4.68,3.84 0,2.24 -1.56,3.6 -4.04,3.6 z"
       id="path1234"
       style="fill:#ffffff;fill-opacity:1" />
    <path
       d="m 127.77685,36.67511 h 9.88 c 9.52,0 15.8,-5.72 15.8,-14.44 0,-8.36 -5.68,-13.3200001 -15.28,-13.3200001 h -10.4 z m 6.8,-5.96 v -15.84 h 3.2 c 5.32,0 8.48,3.04 8.48,8.16 0,4.96 -2.76,7.68 -7.8,7.68 z"
       id="path1236"
       style="fill:#ffffff;fill-opacity:1" />
    <path
       d="m 157.77678,36.67511 h 7.04 v -10.28 h 11.32 v -6.08 h -11.32 v -5.32 h 12.76 V 8.9151099 h -19.8 z"
       id="path1238"
       style="fill:#ffffff;fill-opacity:1" />
  </g>
  <g
     aria-label="from"
     id="text1174"
     style="font-style:normal;font-variant:normal;font-weight:300;font-stretch:normal;font-size:17.6192px;line-height:1.25;font-family:Cantarell;-inkscape-font-specification:'Cantarell, Light';font-variant-ligatures:normal;font-variant-caps:normal;font-variant-numeric:normal;font-variant-east-asian:normal;fill:#ffffff;fill-opacity:1;stroke:none;stroke-width:0.440481">
    <path
       d="m 63.616533,54.90868 h 0.704768 v -7.875782 h 2.748595 v -0.599053 h -2.748595 v -2.449069 c 0,-1.039533 0.634291,-1.656205 1.673824,-1.656205 0.475718,0 1.021914,0.105716 1.444774,0.317146 l 0.158573,-0.510957 c -0.493337,-0.264288 -1.004294,-0.422861 -1.53287,-0.422861 -1.462394,0 -2.449069,0.951437 -2.449069,2.396212 v 2.325734 h -1.303821 v 0.599053 h 1.303821 z"
       style="stroke-width:0.440481;fill:#ffffff;fill-opacity:1"
       id="path1241" />
    <path
       d="m 69.113723,54.90868 h 0.722387 v -6.483866 c 0.581434,-0.86334 1.462394,-1.356678 2.431449,-1.356678 0.317146,0 0.651911,0.05286 0.933818,0.158573 l 0.176192,-0.616672 c -0.299526,-0.123335 -0.65191,-0.193811 -1.021914,-0.193811 -1.039532,0 -1.97335,0.493337 -2.554783,1.339059 l -0.105716,-1.32144 h -0.581433 z"
       style="stroke-width:0.440481;fill:#ffffff;fill-opacity:1"
       id="path1243" />
    <path
       d="m 78.575229,55.084872 c 2.308115,0 3.876224,-1.779539 3.876224,-4.440038 0,-2.625261 -1.515251,-4.334324 -3.770509,-4.334324 -2.343353,0 -3.893843,1.77954 -3.893843,4.42242 0,2.62526 1.497632,4.351942 3.788128,4.351942 z m 0.0881,-0.616672 c -1.920493,0 -3.171456,-1.53287 -3.171456,-3.805747 0,-2.220019 1.180487,-3.735271 3.065741,-3.735271 1.902874,0 3.171456,1.515252 3.171456,3.805748 0,2.272876 -1.215725,3.73527 -3.065741,3.73527 z"
       style="stroke-width:0.440481;fill:#ffffff;fill-opacity:1"
       id="path1245" />
    <path
       d="m 96.775854,54.90868 h 0.722387 v -5.550048 c 0,-1.920493 -1.127629,-3.048122 -2.924787,-3.048122 -1.180487,0 -2.343354,0.510957 -3.171456,1.409536 -0.475719,-0.916198 -1.374298,-1.409536 -2.554784,-1.409536 -1.057152,0 -2.079066,0.387623 -2.889549,1.074772 l -0.140954,-0.951437 h -0.528576 v 8.474835 h 0.722388 v -6.941965 c 0.740006,-0.65191 1.691443,-1.039533 2.660499,-1.039533 1.480013,0 2.360973,0.933818 2.360973,2.537165 v 5.444333 h 0.722387 v -5.550048 c 0,-0.44048 -0.05286,-0.845722 -0.176192,-1.198106 0.757625,-0.775244 1.779539,-1.233344 2.819072,-1.233344 1.497632,0 2.378592,0.933818 2.378592,2.537165 z"
       style="stroke-width:0.440481;fill:#ffffff;fill-opacity:1"
       id="path1247" />
  </g>
  <g
     aria-label="CHEVRO"
     id="text1178"
     style="font-style:normal;font-variant:normal;font-weight:bold;font-stretch:normal;font-size:18.7297px;line-height:1.25;font-family:Cantarell;-inkscape-font-specification:'Cantarell, Bold';font-variant-ligatures:normal;font-variant-caps:normal;font-variant-numeric:normal;font-variant-east-asian:normal;fill:#ffffff;fill-opacity:1;stroke:none;stroke-width:0.468242">
    <path
       d="m 110.1312,55.084891 c 1.3298,0 2.79072,-0.337134 3.9145,-0.880295 l -0.54316,-1.741863 c -0.84284,0.318405 -1.8917,0.505702 -2.79072,0.505702 -2.84692,0 -4.62624,-1.87297 -4.62624,-4.794803 0,-2.753266 1.61075,-4.326561 4.34529,-4.326561 1.03013,0 2.2101,0.206027 3.05294,0.543162 l 0.67427,-1.87297 c -1.10505,-0.524432 -2.37867,-0.805377 -3.67102,-0.805377 -4.1018,0 -6.91126,2.715806 -6.91126,6.798881 0,3.933237 2.65962,6.574124 6.5554,6.574124 z"
       style="stroke-width:0.468242;fill:#ffffff;fill-opacity:1"
       id="path1250" />
    <path
       d="m 116.23707,54.897594 h 2.45359 v -5.58145 h 5.97477 v 5.58145 h 2.43486 V 41.899183 h -2.43486 v 5.263045 h -5.97477 v -5.263045 h -2.45359 z"
       style="stroke-width:0.468242;fill:#ffffff;fill-opacity:1"
       id="path1252" />
    <path
       d="m 130.13448,54.897594 h 8.7655 v -2.116456 h -6.34937 v -3.483724 h 5.82494 v -2.116456 h -5.82494 v -3.165319 h 6.34937 v -2.116456 h -8.7655 z"
       style="stroke-width:0.468242;fill:#ffffff;fill-opacity:1"
       id="path1254" />
    <path
       d="m 144.61252,54.897594 h 2.50978 l 4.68243,-12.998411 h -2.47232 l -3.35262,10.132767 -3.22151,-10.132767 h -2.80945 z"
       style="stroke-width:0.468242;fill:#ffffff;fill-opacity:1"
       id="path1256" />
    <path
       d="m 153.39674,54.897594 h 2.41613 v -4.850992 h 2.11646 c 0.0187,0 0.0562,0 0.0749,0 l 2.77199,4.850992 h 2.90311 L 160.42038,49.5409 c 1.5171,-0.711728 2.43486,-2.116456 2.43486,-3.858318 0,-2.397402 -1.74186,-3.783399 -4.60751,-3.783399 h -4.85099 z m 2.41613,-6.892529 v -4.008156 h 2.11646 c 1.5171,0 2.41613,0.767918 2.41613,2.060267 0,1.217431 -0.74919,1.947889 -2.09773,1.947889 z"
       style="stroke-width:0.468242;fill:#ffffff;fill-opacity:1"
       id="path1258" />
    <path
       d="m 171.05885,55.066162 c 3.9145,0 6.51793,-2.715807 6.51793,-6.780152 0,-3.933237 -2.52851,-6.574124 -6.31191,-6.574124 -3.87705,0 -6.44301,2.715806 -6.44301,6.780151 0,3.951967 2.49105,6.574125 6.23699,6.574125 z m 0.20602,-2.116456 c -2.35994,0 -3.9145,-1.854241 -3.9145,-4.663696 0,-2.678347 1.47964,-4.438939 3.70848,-4.438939 2.41613,0 3.98942,1.835511 3.98942,4.644966 0,2.678347 -1.49837,4.457669 -3.7834,4.457669 z"
       style="stroke-width:0.468242;fill:#ffffff;fill-opacity:1"
       id="path1260" />
  </g>
</svg>
